<svg width="108" height="108" viewBox="0 0 108 108" fill="none" xmlns="http://www.w3.org/2000/svg">
<g clip-path="url(#clip0_7833_21)">
<path d="M86.5042 9.13501H21.3449C18.0674 9.13501 14.9241 10.437 12.6066 12.7545C10.289 15.0721 8.98706 18.2153 8.98706 21.4928V86.6521C8.98706 88.275 9.3067 89.8819 9.92774 91.3813C10.5488 92.8806 11.459 94.2429 12.6066 95.3904C13.7541 96.5379 15.1164 97.4482 16.6157 98.0692C18.1151 98.6903 19.722 99.0099 21.3449 99.0099H41.5667C42.4606 99.0099 43.3178 98.6548 43.9499 98.0228C44.5819 97.3907 44.937 96.5335 44.937 95.6396C44.937 94.7458 44.5819 93.8885 43.9499 93.2564C43.3178 92.6244 42.4606 92.2693 41.5667 92.2693H21.3449C19.8551 92.2693 18.4263 91.6775 17.3729 90.6241C16.3195 89.5707 15.7277 88.1419 15.7277 86.6521V36.7715H92.1214V43.9615C92.1214 44.8554 92.4764 45.7127 93.1085 46.3447C93.7406 46.9768 94.5978 47.3318 95.4917 47.3318C96.3855 47.3318 97.2428 46.9768 97.8748 46.3447C98.5069 45.7127 98.862 44.8554 98.862 43.9615V21.4928C98.862 19.87 98.5423 18.263 97.9213 16.7637C97.3003 15.2644 96.39 13.9021 95.2425 12.7545C94.0949 11.607 92.7326 10.6967 91.2333 10.0757C89.734 9.45465 88.127 9.13501 86.5042 9.13501ZM24.7152 26.2112C24.0486 26.2112 23.397 26.0136 22.8427 25.6432C22.2885 25.2729 21.8565 24.7465 21.6014 24.1307C21.3463 23.5149 21.2796 22.8372 21.4096 22.1834C21.5397 21.5296 21.8607 20.9291 22.332 20.4578C22.8033 19.9864 23.4039 19.6654 24.0577 19.5354C24.7114 19.4053 25.3891 19.4721 26.0049 19.7272C26.6208 19.9823 27.1471 20.4142 27.5175 20.9685C27.8878 21.5227 28.0855 22.1744 28.0855 22.8409C28.0738 23.7312 27.715 24.5817 27.0855 25.2112C26.4559 25.8408 25.6054 26.1996 24.7152 26.2112ZM40.4433 26.2112C39.7767 26.2112 39.1251 26.0136 38.5708 25.6432C38.0166 25.2729 37.5846 24.7465 37.3295 24.1307C37.0744 23.5149 37.0077 22.8372 37.1377 22.1834C37.2678 21.5296 37.5888 20.9291 38.0601 20.4578C38.5315 19.9864 39.132 19.6654 39.7858 19.5354C40.4395 19.4053 41.1172 19.4721 41.733 19.7272C42.3489 19.9823 42.8753 20.4142 43.2456 20.9685C43.6159 21.5227 43.8136 22.1744 43.8136 22.8409C43.802 23.7312 43.4431 24.5817 42.8136 25.2112C42.184 25.8408 41.3335 26.1996 40.4433 26.2112Z" fill="#4F46E5"/>
<path fill-rule="evenodd" clip-rule="evenodd" d="M22.4685 52.9484C22.4801 52.0582 22.839 51.2077 23.4685 50.5781C24.0981 49.9486 24.9486 49.5898 25.8388 49.5781H55.0482C55.942 49.5781 56.7993 49.9332 57.4313 50.5653C58.0634 51.1973 58.4185 52.0546 58.4185 52.9484C58.4185 53.8423 58.0634 54.6995 57.4313 55.3316C56.7993 55.9637 55.942 56.3187 55.0482 56.3187H25.8388C24.9486 56.3071 24.0981 55.9483 23.4685 55.3187C22.839 54.6892 22.4801 53.8387 22.4685 52.9484ZM22.4685 70.9234C22.4801 70.0332 22.839 69.1827 23.4685 68.5531C24.0981 67.9236 24.9486 67.5647 25.8388 67.5531H37.0732C37.967 67.5531 38.8243 67.9082 39.4564 68.5403C40.0884 69.1723 40.4435 70.0296 40.4435 70.9234C40.4435 71.8173 40.0884 72.6745 39.4564 73.3066C38.8243 73.9386 37.967 74.2937 37.0732 74.2937H25.8388C24.9486 74.2821 24.0981 73.9233 23.4685 73.2937C22.839 72.6642 22.4801 71.8137 22.4685 70.9234Z" fill="#4F46E5"/>
<path fill-rule="evenodd" clip-rule="evenodd" d="M74.5952 57.4455C73.9005 57.4386 73.2216 57.6525 72.6563 58.0563C72.0909 58.4601 71.6684 59.033 71.4496 59.6923L70.1464 63.557L68.1691 64.8601L63.945 63.7817C63.2547 63.6213 62.5314 63.6826 61.8779 63.9569C61.2245 64.2312 60.6741 64.7045 60.3051 65.3095L57.7436 69.8033C57.3531 70.4697 57.2068 71.2514 57.3298 72.014C57.4528 72.7766 57.8374 73.4726 58.4177 73.9825L61.2937 76.499V79.1952L58.4177 81.7117C57.8374 82.2216 57.4528 82.9176 57.3298 83.6802C57.2068 84.4428 57.3531 85.2244 57.7436 85.8909L60.3051 90.3846C60.6741 90.9897 61.2245 91.463 61.8779 91.7372C62.5314 92.0115 63.2547 92.0729 63.945 91.9125L68.2141 90.834L70.0116 91.8676L71.1799 95.867C71.3749 96.5515 71.7872 97.154 72.3547 97.5836C72.9221 98.0132 73.6139 98.2467 74.3256 98.2487H79.763C80.4806 98.2491 81.1791 98.0174 81.7541 97.5881C82.3292 97.1588 82.7499 96.5551 82.9536 95.867L84.1219 91.8676L85.8745 90.834L90.3682 91.9125C91.0586 92.0729 91.7818 92.0115 92.4353 91.7372C93.0888 91.463 93.6391 90.9897 94.0082 90.3846L96.6145 85.8909C96.9967 85.2666 97.1559 84.5312 97.0661 83.8048C96.9763 83.0784 96.6429 82.4039 96.1202 81.8915L93.1094 78.9256V76.9483L96.1202 73.9825C96.6429 73.47 96.9763 72.7955 97.0661 72.0691C97.1559 71.3427 96.9967 70.6073 96.6145 69.983L94.0082 65.4893C93.6391 64.8842 93.0888 64.4109 92.4353 64.1367C91.7818 63.8624 91.0586 63.801 90.3682 63.9614L86.1441 65.0399L84.1669 63.7367L82.8637 59.8721C82.6472 59.2201 82.2315 58.6524 81.6752 58.2493C81.1189 57.8462 80.45 57.6279 79.763 57.6252L74.5952 57.4455ZM76.9769 84.4079C78.2853 84.4168 79.5668 84.037 80.659 83.3166C81.7512 82.5962 82.6049 81.5676 83.1118 80.3614C83.6187 79.1551 83.7559 77.8255 83.5061 76.5412C83.2563 75.2568 82.6308 74.0756 81.7087 73.1473C80.7867 72.2189 79.6098 71.5853 78.3272 71.3267C77.0445 71.0682 75.714 71.1964 74.5044 71.695C73.2947 72.1936 72.2603 73.0403 71.5325 74.1275C70.8046 75.2148 70.416 76.4937 70.416 77.8021C70.416 79.5464 71.1058 81.2198 72.3349 82.4573C73.564 83.6949 75.2327 84.3961 76.9769 84.4079Z" fill="#4F46E5"/>
</g>
<defs>
<clipPath id="clip0_7833_21">
<rect width="89.8749" height="89.8749" fill="white" transform="translate(8.98706 9.13501)"/>
</clipPath>
</defs>
</svg>
