<?xml version="1.0" encoding="utf-8"?>
<svg width="800" height="552" viewBox="0 0 800 552" fill="none" xmlns="http://www.w3.org/2000/svg">
	<path d="M758.621 6.89648H41.3792C22.3349 6.89648 6.89648 22.3349 6.89648 41.3792V510.345C6.89648 529.389 22.3349 544.828 41.3792 544.828H758.621C777.665 544.828 793.103 529.389 793.103 510.345V41.3792C793.103 22.3349 777.665 6.89648 758.621 6.89648Z" fill="url(#paint0_linear_10402_20228)" stroke="#F1F1F1" stroke-width="13.7931"/>
	<path fill-rule="evenodd" clip-rule="evenodd" d="M301.035 267.69H409.355C408.389 244.276 402.934 220.137 386.388 204.632C366.679 186.162 332.156 179.311 301.309 179.311C269.203 179.311 233.697 186.825 213.883 206.642C196.797 223.713 193.104 251.18 193.104 275.857C193.104 301.706 200.33 331.774 218.865 349.094C238.574 367.522 270.51 372.414 301.309 372.414C331.229 372.414 363.639 366.89 383.233 349.395C402.772 331.919 409.526 302.484 409.526 275.857V275.733H301.035V267.69ZM416.625 275.737V368.097H567.308V367.971C589.356 366.77 606.897 346.89 606.897 322.482C606.897 298.062 589.356 276.908 567.308 275.695V275.737H416.625ZM565.592 183.178C587.081 183.178 604.138 201.824 604.138 225.352C604.138 247.625 588.473 265.815 568.546 267.691H416.622V183.043H560.837C561.724 182.934 562.759 183.011 563.77 183.086C564.4 183.131 565.021 183.178 565.592 183.178Z" fill="#FEFEFE"/>
	<defs>
		<linearGradient id="paint0_linear_10402_20228" x1="216.992" y1="-69.8665" x2="22.5754" y2="526.957" gradientUnits="userSpaceOnUse">
			<stop stop-color="#222E72"/>
			<stop offset="0.591647" stop-color="#40CBFF"/>
			<stop offset="1" stop-color="#3CB792"/>
		</linearGradient>
	</defs>
</svg>
